<svg width="24" height="24" viewBox="0 0 24 24" fill="none" xmlns="http://www.w3.org/2000/svg">
<g clip-path="url(#clip0_519_2571)">
<mask id="mask0_519_2571" style="mask-type:luminance" maskUnits="userSpaceOnUse" x="0" y="0" width="24" height="24">
<path d="M24 0H0V24H24V0Z" fill="white"/>
</mask>
<g mask="url(#mask0_519_2571)">
<path d="M18.5407 4.11984L13.0407 2.05984C12.4707 1.84984 11.5407 1.84984 10.9707 2.05984L5.47078 4.11984C4.41078 4.51984 3.55078 5.75984 3.55078 6.88984V14.9898C3.55078 15.7998 4.08078 16.8698 4.73078 17.3498L10.2307 21.4598C11.2007 22.1898 12.7907 22.1898 13.7607 21.4598L19.2607 17.3498C19.9107 16.8598 20.4408 15.7998 20.4408 14.9898V6.88984C20.4508 5.75984 19.5907 4.51984 18.5407 4.11984ZM15.4807 9.71984L11.1807 14.0198C11.0307 14.1698 10.8407 14.2398 10.6507 14.2398C10.4607 14.2398 10.2707 14.1698 10.1207 14.0198L8.52078 12.3998C8.23078 12.1098 8.23078 11.6298 8.52078 11.3398C8.81078 11.0498 9.29078 11.0498 9.58078 11.3398L10.6607 12.4198L14.4307 8.64984C14.7207 8.35984 15.2007 8.35984 15.4907 8.64984C15.7807 8.93984 15.7807 9.42984 15.4807 9.71984Z" fill="white"/>
</g>
</g>
<defs>
<clipPath id="clip0_519_2571">
<rect width="24" height="24" fill="white"/>
</clipPath>
</defs>
</svg>
