<svg width="100" height="100" viewBox="0 0 100 100" fill="none" xmlns="http://www.w3.org/2000/svg">
<rect width="100" height="100" rx="20" fill="white"/>
<g clip-path="url(#clip0_520_3269)">
<path d="M49.4518 20.1902C49.1072 19.8781 48.2613 19.1966 48.2599 18.7202C48.2578 17.9896 48.968 15.6075 49.8019 15.5547C50.095 15.6482 50.4748 16.3914 50.6203 16.6897C50.9339 17.3327 51.3969 18.1701 51.1929 18.8968C51.104 19.3755 50.2088 19.8743 50.1796 20.3123C50.026 22.6141 50.3418 24.9616 50.497 27.2645C50.6066 28.8905 50.5002 30.6997 50.9436 32.2506C51.3284 32.2586 51.7179 32.279 52.0992 32.2317C52.505 31.1858 53.0451 28.8038 53.3651 27.5709C53.8799 25.5874 54.794 22.599 55.0671 20.5781C54.5529 19.9476 54.3917 19.6549 54.4191 18.805C54.446 17.9696 55.518 16.0774 56.4086 16.1239C57.0063 16.1552 57.3678 18.8916 57.2349 19.4071C56.9853 20.3752 55.9306 20.4623 55.7596 21.4713C55.4982 22.8712 55.4152 24.216 55.2874 25.6223C55.205 26.5293 54.945 27.5539 54.8354 28.4513C54.6642 29.8525 54.5162 31.0992 54.2096 32.4759C54.6089 32.7565 55.4904 33.3919 55.9065 32.7851C56.5871 31.7929 56.9729 30.6075 57.5221 29.5423C58.2336 27.982 60.7517 23.6515 61.0129 22.269C60.7467 21.4603 60.5327 20.9644 60.9173 20.105C61.2636 19.3309 62.6488 18.4132 63.398 18.0552C63.6678 19.3954 64.0066 20.7231 63.3494 22.018C62.941 22.2694 62.1974 22.3463 61.9087 22.7034C61.6978 22.9641 58.2427 32.2785 58.0244 33.2016C57.9721 33.4224 57.8576 33.7554 57.9756 33.9658C58.1442 34.2665 58.5747 34.4198 58.8817 34.5402C60.4215 32.7407 61.9288 30.5567 63.4461 28.6794C64.3256 27.5914 65.5686 26.0881 66.3164 24.9753C66.1457 24.4401 65.9079 23.7565 66.138 23.1803C66.3896 22.5502 68.6537 21.1813 69.2492 21.4038C69.7643 21.7847 69.491 22.7262 69.4154 23.2765C69.3242 23.9407 68.996 24.5039 68.6424 25.0616C67.866 25.4815 67.7132 25.3336 66.9236 25.4543C65.6935 27.5632 64.3391 29.6018 63.1357 31.7311C62.4596 32.9273 61.5804 34.0564 61.0118 35.3208C60.7916 35.7804 61.1008 36.5617 61.6883 36.3695C62.2395 36.1795 62.6225 35.6594 63.0303 35.2802C63.2158 35.1076 63.5157 34.6873 63.6903 34.5715C65.1048 33.6327 66.2241 32.4345 67.4793 31.3403C68.5875 30.3742 69.7855 29.6616 70.6481 28.392C70.6149 27.6992 70.5651 27.2312 71.0786 26.6828C71.792 25.9211 73.3133 25.4994 74.3203 25.5621C74.5451 26.2072 73.6546 27.9972 73.3596 28.5988C73.3172 28.6853 73.272 28.7704 73.2241 28.854C72.6479 29.1025 71.1881 29.2137 71.0756 29.3142C69.7163 30.5284 67.7105 32.9328 66.6342 34.3305C65.8596 35.3364 63.7578 37.1134 63.422 37.9411C63.3984 37.9998 63.3757 38.059 63.3541 38.1184C63.5323 38.5124 63.6462 38.7337 63.9512 39.0528C64.6761 38.6772 65.4279 38.185 66.1106 37.733C66.7829 37.2881 67.4664 36.9971 68.1666 36.6085C70.3132 35.4322 72.4336 34.2086 74.526 32.9386C74.5946 32.2739 74.5887 31.5883 75.1681 31.1314C75.8691 30.5787 77.6287 30.6709 78.5719 30.6281C78.2222 31.5807 77.7187 33.1767 76.7451 33.608C76.0977 33.8949 75.4913 33.7695 74.8141 33.694C73.5494 34.2237 69.7991 37.5088 68.54 38.4959C67.6947 39.11 66.7717 39.6316 65.9349 40.2557C65.805 40.3526 65.4183 40.6974 65.3809 40.837C65.2683 41.257 65.7828 41.9121 66.0833 42.115C66.408 42.2074 76.5778 38.7286 77.5617 38.2805C77.649 37.8519 77.7267 37.5266 77.9417 37.1335C79.0834 36.4543 80.1977 36.7339 81.474 36.8848C81.5851 36.8979 81.7172 36.9724 81.7958 37.0578C81.826 37.4634 81.222 38.148 80.9704 38.4617C80.1159 39.5266 78.9627 39.9812 77.79 39.0945C77.0489 39.3375 76.3215 39.6512 75.6238 39.9989C72.9385 41.3373 70.1924 42.5369 67.4847 43.8262C67.2899 43.919 67.0596 44.0518 66.9259 44.2198C66.7698 44.6401 66.9345 45.2731 67.379 45.4373C70.7943 45.0623 74.2155 44.6445 77.6162 44.1651C78.0514 44.1038 78.9772 44.0984 79.1797 43.7067C80.0742 41.9773 82.1293 42.5788 83.5022 43.3012C84.2084 43.6724 82.1332 45.0883 81.762 45.1895C80.7113 45.5747 80.0446 45.4036 79.2387 44.6343C78.0507 44.8707 68.0084 47.3413 67.6847 47.6447C67.4931 48.0074 67.596 48.4144 67.6535 48.82L76.2085 49.3309C77.2509 49.3857 78.3602 49.5251 79.4058 49.4759C79.6433 49.4647 79.8448 49.3333 80.0205 49.1687C80.5403 48.6817 80.6937 48.3962 81.4625 48.3886C82.1845 48.3815 83.6875 49.2019 84.1667 49.6987C84.2043 49.8235 84.2234 49.8453 84.1428 49.9623C83.4852 50.9175 81.6521 51.7599 80.57 51.0941C80.2114 50.8735 79.994 50.5713 79.7339 50.2713C78.8215 50.217 78.0123 50.298 76.9012 50.3585C75.5153 50.4338 75.0788 50.4451 73.4387 50.5868C71.9624 50.7143 69.2054 50.6257 67.7167 51.0507C67.5094 51.1098 67.5296 51.8514 67.784 52.1866C68.6041 52.7087 71.3075 53.2491 72.3856 53.4867C74.5095 53.9548 77.1763 55.0059 79.2912 55.2361C79.6886 54.9024 80.1984 54.4155 80.7632 54.4353C81.5202 54.462 83.6062 55.7913 83.6417 56.5408C83.4243 56.8911 82.2156 57.0937 81.7945 57.2116C80.2587 57.6416 79.8529 57.3427 79.1046 56.0151C77.921 55.7485 67.525 54.2624 67.2063 54.4651C66.9189 54.6477 66.8395 55.0212 66.7766 55.3339C66.7422 55.5051 66.7202 55.6804 66.6979 55.8536C67.7823 56.4669 68.6956 56.8737 69.8013 57.4194L74.1611 59.5896C75.1987 60.0965 76.4245 60.8475 77.4594 61.2144C77.7943 61.0467 78.2602 60.8213 78.6102 60.707C79.4869 60.4208 81.7347 62.6539 81.5132 63.4569C81.1285 63.8155 78.2561 63.8014 77.8085 63.2826C77.45 62.8671 77.3489 62.4099 77.2943 61.876C73.7516 60.5505 70.112 59.375 66.5631 58.0563C65.6185 57.7053 65.5645 58.036 65.2136 58.8347C65.789 59.5764 67.0132 60.4426 67.7999 61.0229C70.0063 62.6502 72.1387 64.3609 74.3194 66.019C74.4853 66.1451 74.6282 66.2336 74.779 66.3844C75.3042 66.1452 75.8237 65.8838 76.3935 66.1385C77.5293 66.6464 78.2948 68.2881 78.3879 69.4411C77.2672 69.2332 75.2273 69.1876 74.664 68.2973C74.338 67.782 74.3811 67.4085 74.3763 66.8269C72.7898 66.1309 64.6833 60.8784 63.8967 60.8138C63.6464 60.9281 63.5842 60.9945 63.4708 61.2523C63.0672 62.1686 64.4843 63.1173 65.0417 63.7468L68.8378 68.0652C69.5743 68.896 70.413 69.8937 71.2231 70.6265C72.9631 70.4453 73.1928 70.6431 73.9226 72.3569C74.0926 72.7562 74.511 73.8303 74.2321 74.1985C73.7219 74.3915 72.4202 73.8127 71.929 73.5896C71.4725 73.3824 70.9288 73.1517 70.7378 72.652C70.5403 72.1353 70.8348 71.5214 70.5451 71.0441C70.2999 70.6401 62.1693 63.5611 61.5388 63.2337C61.1862 63.5095 60.8324 63.6989 60.7759 64.1398C60.8896 64.5181 61.0774 64.8672 61.2667 65.2123C61.7399 66.0748 66.4968 74.1842 66.7798 74.3385C66.9891 74.4527 67.2378 74.4101 67.4654 74.4223C68.1989 74.4618 68.683 75.1052 68.9154 75.7402C69.1339 76.3369 69.3887 77.7299 69.1205 78.309C69.074 78.4094 69.0296 78.4027 68.9304 78.4363C68.1954 78.3591 66.6356 77.3419 66.0839 76.7874C65.6313 76.3324 65.9636 75.3547 66.2125 74.8561C64.6964 72.7494 63.0273 70.6403 61.4463 68.5756C60.6372 67.5189 59.6502 66.1463 58.7368 65.206C58.3093 65.4252 57.7339 65.6239 57.588 66.1325C57.4363 66.6607 60.8774 76.1948 61.3251 77.3774C63.3407 77.7502 63.3121 79.5097 63.0354 81.1543C63.003 81.3464 62.9503 81.523 62.8233 81.6733C62.4142 81.7248 61.7504 81.2582 61.4226 81.004C60.1393 80.0089 59.6606 79.0993 60.5751 77.6078C59.9752 76.3335 55.7081 66.958 55.2495 66.7384C54.901 66.6763 54.3663 67.0518 54.183 67.357C54.1323 67.6932 54.6125 70.7706 54.6819 71.3105L55.2753 75.8791C55.3191 76.2387 55.5334 78.7679 55.7434 78.915C56.7961 79.6533 57.3662 80.0678 57.1544 81.5446C57.0768 82.0857 56.7784 83.6818 56.0903 83.6346C55.4419 83.2431 54.4075 81.7241 54.149 80.9663C54.0201 80.5885 54.4773 79.7572 54.7075 79.4051C54.7719 79.3065 54.8394 79.21 54.91 79.1158C54.8007 78.1308 54.2922 76.1857 54.0263 75.1679C53.3458 72.5632 52.6446 70.1028 52.0475 67.4705C50.979 67.5013 50.8013 67.4394 50.69 68.5798C50.5535 69.9789 50.5896 71.3753 50.5 72.7764C50.3026 74.8935 50.0178 77.171 50.1466 79.3124C50.1543 79.433 50.1663 79.5533 50.1826 79.6731C50.5292 79.9922 51.2083 80.5852 51.251 81.0567C51.3067 81.6705 50.3047 83.742 49.9712 84.1337C49.2481 84.3982 48.7151 82.6839 48.4763 82.1735C48.2713 81.7352 48.2177 81.2078 48.2646 80.7266C48.6305 80.2743 49.1247 79.8224 49.419 79.4487C49.4125 78.3991 49.2609 77.4364 49.2079 76.4093C49.1075 74.4607 48.989 72.5148 48.784 70.5731C48.6895 69.678 48.7639 68.3843 48.6038 67.5745C48.1458 67.4928 47.6787 67.475 47.2158 67.5216C46.8847 69.3643 46.5564 71.0057 45.9485 72.7788C45.7381 73.3924 45.6732 74.1926 45.4704 74.8233C45.0391 75.9908 44.8256 77.189 44.566 78.3689C44.25 79.8057 45.3381 79.9122 45.0896 81.0699C44.9731 81.6132 43.6169 83.3844 43.0764 83.5745C42.8881 83.4904 42.6523 82.9945 42.5935 82.7998C42.0681 81.0578 41.7186 79.9535 43.5232 78.9678C43.8099 77.7352 45.306 67.5329 45.1014 67.1876C44.9374 66.9109 44.5058 66.7527 44.2067 66.7002C44.0614 66.6747 43.8204 66.6616 43.6969 66.7543C43.3819 66.9911 39.44 74.8976 38.9937 75.8599C38.7457 76.3948 38.524 76.9362 38.3533 77.501C38.7111 78.1143 38.8111 78.3985 38.6902 79.1484C38.5691 79.9003 36.7874 81.4664 36.0844 81.515C35.7517 81.1559 35.8403 79.7594 35.8409 79.2795C35.8427 77.7863 36.338 77.5541 37.5696 76.9892C39.0738 73.4649 40.4516 69.4732 41.6517 65.8225C41.3541 65.6181 40.8997 65.2179 40.5188 65.2767C40.2713 65.315 34.0398 73.4434 33.4572 74.3017C33.3556 74.4526 33.2629 74.6094 33.1798 74.7712C33.2798 75.1759 33.3846 75.5567 33.4304 75.9719C32.9254 77.2942 31.8673 77.5999 30.7014 78.3179C30.5956 78.3831 30.4247 78.4068 30.2985 78.3913C30.1379 78.2276 30.0669 78.0917 30.0883 77.8445C30.1797 76.7943 30.1751 75.6203 30.908 74.7814C31.2297 74.4131 32.3156 74.3436 32.5461 74.0546C33.5602 72.783 34.3277 71.223 35.1441 69.811C36.0196 68.3859 38.2154 65.3266 38.6296 63.8975C38.4985 63.7651 37.9409 63.1652 37.7406 63.3038C36.5017 64.1634 35.4428 65.3854 34.3026 66.3695C32.5219 67.8568 30.7159 69.3006 29.0548 70.9275C28.5393 71.4324 29.297 72.146 28.5846 72.8967C27.7468 73.7793 26.4784 74.0103 25.336 74.3078C25.2836 74.3214 25.1879 74.2901 25.1389 74.273C24.9826 73.9755 25.4163 72.8593 25.5204 72.5029C26.0871 70.5635 26.5409 70.5875 28.2108 70.4977C29.236 69.8636 30.3849 68.1001 31.2267 67.189C31.9465 66.4098 32.6527 65.6766 33.3252 64.8511C34.1001 63.8997 35.7624 62.6485 36.2167 61.531C35.9498 61.1416 35.8138 60.9795 35.4194 60.7141C34.8941 60.8766 33.0955 62.0111 32.5151 62.3631C30.269 63.7255 27.1747 65.2246 25.0954 66.7309C25.0138 67.2883 24.9691 68.1091 24.4868 68.5008C23.9363 68.9481 21.439 69.3115 20.9618 68.933C20.8917 68.7621 20.9402 68.576 21.0233 68.406C21.4298 67.5735 21.967 66.3883 22.8483 65.9853C23.2127 65.8188 24.223 65.9817 24.6146 66.0333C26.1778 65.2561 28.1867 63.3293 29.6202 62.2756C31.1698 61.1363 32.6878 60.0167 34.2265 58.8682C33.7178 57.802 33.6252 57.3179 32.3688 57.7757C30.2956 58.5313 28.1445 59.1457 26.0741 59.8955C24.8593 60.3354 23.3083 60.6554 22.173 61.1368C21.9515 61.6779 21.6923 62.5454 21.1356 62.8155C20.5586 63.0955 18.0061 63.1048 17.6422 62.6523C17.5928 62.4542 17.6624 62.2494 17.7766 62.0888C18.6321 60.8859 18.8965 60.2915 20.3298 59.9344C20.8851 60.1585 21.1959 60.3471 21.7151 60.6561C24.0276 59.6395 26.3249 58.4453 28.6275 57.3939C29.7913 56.8626 30.9597 56.3746 32.0877 55.7628C32.7475 55.405 32.4283 54.8015 32.3208 54.2206C30.946 54.2886 29.543 54.6045 28.1655 54.7638C25.5121 55.0705 22.8148 55.3412 20.1662 55.6733C20.049 56.3253 20.0395 56.6028 19.4847 56.9996C18.6056 57.1659 16.2748 57.1291 15.7675 56.3737C15.7476 56.1721 15.7534 56.0212 15.916 55.8563C16.6515 55.1101 17.7051 54.2043 18.7979 54.1614C19.258 54.1433 19.867 54.7786 20.1833 55.0917C23.6016 54.369 27.0374 53.3028 30.4496 52.5204C30.9349 52.4091 31.4875 52.223 31.9505 52.0393C31.9128 51.7688 31.8995 51.2659 31.6727 51.0862C31.1975 50.7096 20.6017 50.1956 19.6302 50.2823C19.1999 50.8258 18.9874 51.108 18.3404 51.405C17.3776 51.2785 15.6771 50.5867 15 49.981V49.7334C15.5197 49.4442 16.053 49.1408 16.5776 48.8646C18.0237 48.1034 18.6428 48.214 19.6306 49.4319C21.1818 49.5187 22.4806 49.3836 24.0235 49.2804C25.8879 49.1557 30.1348 49.2311 31.758 48.7078C31.8265 48.3862 31.9621 47.921 31.871 47.6211C31.3427 47.0657 21.9435 44.9804 20.3806 44.5388C20.2502 44.5019 20.04 44.6057 19.9643 44.7202C19.1294 46.1568 16.0479 44.3242 15.7217 43.2524C15.855 42.8279 18.5281 42.1516 19.0927 42.3204C19.6707 42.4931 20.1088 43.2328 20.3382 43.7351C21.2918 43.9879 21.924 44.0146 22.888 44.1416L26.3327 44.5999C28.1124 44.8296 30.5724 45.2802 32.3318 45.308L32.7671 43.8858C30.8408 42.6699 28.5015 41.669 26.4402 40.6525C25.0959 39.9896 23.1936 39.0122 21.7874 38.4866C21.51 38.7024 20.8756 39.1572 20.5211 39.0662C19.4494 38.7911 18.1209 37.0263 17.594 36.1701C18.7615 36.1055 20.3908 35.9038 21.4667 36.2464C22.0152 36.7904 21.9885 37.0084 22.1516 37.7884C22.2792 37.8398 22.7265 38.0249 22.8183 38.0491C24.093 38.3855 33.1569 41.9224 33.6373 41.7616C33.9265 41.5434 34.1008 41.1637 34.3417 40.8337C33.6849 40.1778 32.8161 39.5468 32.0694 38.985C29.9885 37.4191 27.9382 35.8162 25.8562 34.252C25.494 33.9798 25.0077 33.605 24.5332 33.6149C23.8186 33.6488 23.1583 33.938 22.5784 33.3411C21.9952 32.7541 21.1243 31.1309 20.8299 30.3726C21.6983 30.3893 22.489 30.4279 23.3444 30.5949C24.7333 30.866 24.974 31.5978 25.2329 32.8127C26.0046 33.4557 27.0395 33.9977 27.925 34.5119L31.4361 36.5728C31.9371 36.8697 34.9852 38.7445 35.3448 38.8556C35.7401 38.778 36.0822 38.3786 36.3783 38.0913L30.5166 31.5743C30.0219 31.035 28.7548 29.5809 28.2682 29.2163C27.6971 29.1963 26.8319 29.2394 26.3876 28.835C25.8683 28.3626 25.1351 26.1867 25.1306 25.6053C25.287 25.3953 25.6395 25.468 25.8632 25.5394C26.8547 25.8563 28.741 26.2587 28.7969 27.5628C28.8098 27.8622 28.7949 28.2484 28.7854 28.5595C29.5334 29.4345 30.872 30.5167 31.7722 31.294L35.7869 34.7831C36.3777 35.2899 37.1979 36.1433 37.7914 36.5468C38.2779 36.1855 38.9424 35.8408 38.5243 35.1791C36.5836 32.1069 34.8179 28.4262 32.7419 25.4824C32.2107 25.3748 31.1863 25.2006 30.8718 24.7069C30.4805 24.0926 30.0499 21.9575 30.3178 21.3441C30.9251 21.0421 32.9993 22.6009 33.4327 23.132C33.6169 23.9144 33.5853 24.134 33.2647 24.9167C34.0166 25.945 40.0982 34.1675 40.6547 34.4387C41.087 34.4572 41.8542 33.9165 41.9691 33.518C41.87 32.8916 41.4859 32.1968 41.2946 31.5781C40.4208 28.7519 39.3666 25.976 38.4927 23.1505C38.4052 22.8675 38.3129 22.6748 38.1471 22.4286C37.674 22.2344 36.7967 21.945 36.5536 21.4311C36.2957 20.8859 36.4784 18.3024 36.8901 17.9897C37.5819 17.9548 39.533 20.0183 39.4441 20.8354C39.4779 21.3133 38.8586 22.0047 39.0865 22.5121C40.6587 26.0125 42.3043 29.5337 44.0734 32.9339C44.2217 33.2187 45.105 32.6553 45.2922 32.5502C45.2753 31.1113 45.0071 30.3762 44.8248 29.018C44.4691 26.3686 44.1962 23.6369 43.8107 20.995C43.0993 19.9014 42.004 20.1255 42.4572 18.2024C42.5837 17.6655 42.7346 16.5007 43.1328 16.1233C43.8198 16.052 45.2066 18.2252 45.3572 18.8608C45.4491 19.2489 44.8087 20.1092 44.5954 20.4766C44.7472 21.5449 47.1388 31.8774 47.559 32.1643C47.8266 32.3471 48.3311 32.2358 48.639 32.2023C48.9799 28.8178 48.97 25.2781 49.354 21.8804C49.4116 21.3707 49.4596 20.6965 49.4518 20.1902ZM37.3182 39.6077C35.6598 41.617 34.5138 43.9987 33.9784 46.5484C33.0199 51.1129 34.0878 55.8687 36.9056 59.5854C39.7233 63.302 44.0142 65.6144 48.6679 65.924C49.4055 65.973 50.1455 65.9713 50.8829 65.9187C56.322 65.5306 61.1953 62.4161 63.8318 57.6428C64.6275 56.2024 65.1977 54.6484 65.5224 53.0352C65.8198 51.5582 65.9083 50.0467 65.7855 48.545C65.7355 47.9328 65.6505 47.324 65.5308 46.7216C65.462 46.375 65.3818 46.0308 65.2904 45.6896C64.6809 43.4151 63.58 41.302 62.0653 39.4992C59.2688 36.1707 55.2452 34.1144 50.9095 33.7979C45.7053 33.4179 40.6396 35.5833 37.3182 39.6077Z" fill="#D14310"/>
<path d="M48.8597 35.7964C56.6134 35.3208 63.285 41.2197 63.7625 48.9733C64.2402 56.7267 58.343 63.3999 50.5896 63.8795C42.8334 64.3593 36.1572 58.4595 35.6794 50.7031C35.2017 42.9467 41.1033 36.2721 48.8597 35.7964Z" fill="#D14310"/>
</g>
<defs>
<clipPath id="clip0_520_3269">
<rect width="70" height="70" fill="white" transform="translate(15 15)"/>
</clipPath>
</defs>
</svg>
