<svg width="20" height="20" viewBox="0 0 20 20" fill="none" xmlns="http://www.w3.org/2000/svg">
<path d="M3.37049 15.4236C2.23417 14.2874 1.66602 13.7192 1.66602 13.0131C1.66602 12.3071 2.23417 11.7389 3.37049 10.6026L10.6019 3.37116C11.7383 2.23485 12.3064 1.66669 13.0124 1.66669C13.7185 1.66669 14.2867 2.23485 15.4229 3.37116L16.6282 4.57641C17.7645 5.71273 18.3327 6.28089 18.3327 6.9869C18.3327 7.69292 17.7645 8.26108 16.6282 9.39744L9.39677 16.6289C8.26041 17.7652 7.69225 18.3334 6.98623 18.3334C6.28022 18.3334 5.71206 17.7652 4.57574 16.6289L3.37049 15.4236Z" stroke="white"/>
<path d="M7.05273 7.05371L8.23124 8.23222" stroke="white" stroke-linecap="round"/>
<path d="M10.5898 3.51819L11.7683 4.69671" stroke="white" stroke-linecap="round"/>
<path d="M3.51758 10.5894L4.69609 11.7679" stroke="white" stroke-linecap="round"/>
<path d="M5.28516 8.82147L7.05292 10.5892" stroke="white" stroke-linecap="round"/>
<path d="M8.82227 5.28595L10.5901 7.05372" stroke="white" stroke-linecap="round"/>
</svg>
