<svg width="20" height="20" viewBox="0 0 20 20" fill="none" xmlns="http://www.w3.org/2000/svg">
<path d="M3.33398 8.45277C3.33398 4.70492 6.31875 1.66669 10.0007 1.66669C13.6826 1.66669 16.6673 4.70492 16.6673 8.45277C16.6673 12.1713 14.5396 16.5104 11.2197 18.062C10.4459 18.4238 9.5554 18.4238 8.78157 18.062C5.46175 16.5104 3.33398 12.1713 3.33398 8.45277Z" stroke="white"/>
<path d="M10 10.8333C11.3807 10.8333 12.5 9.71402 12.5 8.33331C12.5 6.9526 11.3807 5.83331 10 5.83331C8.61929 5.83331 7.5 6.9526 7.5 8.33331C7.5 9.71402 8.61929 10.8333 10 10.8333Z" stroke="white"/>
</svg>
